<svg id="Layer_1" data-name="Layer 1" xmlns="http://www.w3.org/2000/svg" viewBox="0 0 288.20028 34.82492"><defs><style>.cls-1{fill:#fff;}.cls-2{fill:none;stroke:#ee0;stroke-linecap:round;stroke-linejoin:round;stroke-width:1.3px;}</style></defs><title>logo4</title><path class="cls-1" d="M242.87963,670.73557h-3.58691v-9.19531h-9.2666v9.19531h-3.60156V650.01h3.60156v8.626h9.2666V650.01h3.58691v20.72559Z" transform="translate(-178.78482 -642.3712)"/><path class="cls-1" d="M250.93627,670.73557h-3.58691V650.01h3.58691v20.72559Z" transform="translate(-178.78482 -642.3712)"/><path class="cls-1" d="M266.19555,665.39768a2.50149,2.50149,0,0,0-.96094-2.10645,11.53583,11.53583,0,0,0-3.46582-1.49512,16.71744,16.71744,0,0,1-3.98584-1.67969,5.31983,5.31983,0,0,1-2.83252-4.64062,5.05028,5.05028,0,0,1,2.04248-4.12793,8.272,8.272,0,0,1,5.30225-1.62207,8.961,8.961,0,0,1,3.85791.79688,6.33167,6.33167,0,0,1,2.66162,2.27051,5.82377,5.82377,0,0,1,.96777,3.2666h-3.58691a3.24895,3.24895,0,0,0-1.01758-2.541,4.20008,4.20008,0,0,0-2.91113-.918,4.38741,4.38741,0,0,0-2.74023.75488,2.51188,2.51188,0,0,0-.97461,2.10645,2.27214,2.27214,0,0,0,1.05322,1.90039,12.13664,12.13664,0,0,0,3.47314,1.48047,15.93877,15.93877,0,0,1,3.88574,1.63672,6.18544,6.18544,0,0,1,2.14941,2.10645,5.48476,5.48476,0,0,1,.68359,2.7832,4.93113,4.93113,0,0,1-1.98584,4.12012,8.61034,8.61034,0,0,1-5.3877,1.53027,10.13162,10.13162,0,0,1-4.13525-.832,6.94782,6.94782,0,0,1-2.93213-2.29883,5.7281,5.7281,0,0,1-1.04639-3.417h3.60156a3.35246,3.35246,0,0,0,1.167,2.7334,5.10964,5.10964,0,0,0,3.34521.96777,4.43928,4.43928,0,0,0,2.8252-.76172A2.45451,2.45451,0,0,0,266.19555,665.39768Z" transform="translate(-178.78482 -642.3712)"/><path class="cls-1" d="M273.59741,672.51486h-2.71875L279.03491,650.01h2.71875Z" transform="translate(-178.78482 -642.3712)"/><path class="cls-1" d="M300.94164,670.73557h-3.58691v-9.19531h-9.2666v9.19531h-3.60156V650.01h3.60156v8.626h9.2666V650.01h3.58691v20.72559Z" transform="translate(-178.78482 -642.3712)"/><path class="cls-1" d="M317.31127,661.48264h-8.51221v6.377h9.94971v2.876H305.1975V650.01h13.45166v2.9043h-9.8501V658.636h8.51221v2.84668Z" transform="translate(-178.78482 -642.3712)"/><path class="cls-1" d="M329.29662,662.76389h-4.01416v7.97168H321.6809V650.01H328.969a8.47645,8.47645,0,0,1,5.53711,1.61035,5.694,5.694,0,0,1,1.9502,4.6582,5.83542,5.83542,0,0,1-1.00342,3.4834,6.38282,6.38282,0,0,1-2.79687,2.1582l4.6543,8.62988v0.18555h-3.85742Zm-4.01416-2.90332h3.70068a4.11991,4.11991,0,0,0,2.84717-.918,3.20378,3.20378,0,0,0,1.0249-2.5127,3.40873,3.40873,0,0,0-.94678-2.57617,4.01921,4.01921,0,0,0-2.82568-.93945h-3.80029v6.94629Z" transform="translate(-178.78482 -642.3712)"/><path class="cls-1" d="M362.32006,664.27268a7.42823,7.42823,0,0,1-2.3418,5.01074,7.74311,7.74311,0,0,1-5.28809,1.73633,7.3115,7.3115,0,0,1-4.07812-1.15234,7.52347,7.52347,0,0,1-2.74023-3.26758,11.63579,11.63579,0,0,1-.98193-4.832v-2.69043a11.74173,11.74173,0,0,1,.96777-4.89648,7.44546,7.44546,0,0,1,2.78271-3.29492,7.58794,7.58794,0,0,1,4.17822-1.16016,7.42142,7.42142,0,0,1,5.25928,1.793,7.517,7.517,0,0,1,2.24219,4.96777h-1.76514q-0.65479-5.28076-5.73633-5.28027a5.43445,5.43445,0,0,0-4.49121,2.1084,9.14086,9.14086,0,0,0-1.67237,5.82617V661.676a9.20565,9.20565,0,0,0,1.62989,5.72656,5.24885,5.24885,0,0,0,4.40527,2.13672,5.827,5.827,0,0,0,4.14209-1.31641,6.31215,6.31215,0,0,0,1.72266-3.9502h1.76514Z" transform="translate(-178.78482 -642.3712)"/><path class="cls-1" d="M381.89184,661.49729a11.9711,11.9711,0,0,1-.98926,5.02441,7.55147,7.55147,0,0,1-2.8252,3.33105,7.73486,7.73486,0,0,1-4.24219,1.167,7.36,7.36,0,0,1-5.86426-2.59766,10.38325,10.38325,0,0,1-2.23486-7.01074v-2.13477a11.90546,11.90546,0,0,1,1.00342-5.01758,7.455,7.455,0,0,1,7.06738-4.5332,7.74771,7.74771,0,0,1,4.2207,1.15234,7.574,7.574,0,0,1,2.8252,3.25977,11.73343,11.73343,0,0,1,1.03906,4.88281v2.47656Zm-1.75049-2.249a9.16056,9.16056,0,0,0-1.69385-5.86426,6.09166,6.09166,0,0,0-9.24561.00684,9.23229,9.23229,0,0,0-1.71484,5.94238v2.16406a9.158,9.158,0,0,0,1.708,5.84277,6.0964,6.0964,0,0,0,9.28076.0293,9.40469,9.40469,0,0,0,1.66553-5.92871v-2.19238Z" transform="translate(-178.78482 -642.3712)"/><path class="cls-1" d="M392.24047,668.17307l0.11377,0.44141,0.12793-.44141L399.0017,650.01h1.92139l-7.71484,20.72559h-1.67969L383.81371,650.01h1.90723Z" transform="translate(-178.78482 -642.3712)"/><path class="cls-1" d="M406.10473,670.73557h-1.751V650.01h1.751v20.72559Z" transform="translate(-178.78482 -642.3712)"/><path class="cls-1" d="M411.72729,670.73557V650.01h5.79346a9.01422,9.01422,0,0,1,4.56934,1.16016,8.02364,8.02364,0,0,1,3.15283,3.32422,10.46746,10.46746,0,0,1,1.13135,4.9248v1.90723a10.46773,10.46773,0,0,1-1.12451,4.9248,7.99836,7.99836,0,0,1-3.167,3.31738,9.2939,9.2939,0,0,1-4.69043,1.167h-5.665Zm1.751-19.24512V669.2551H417.407a6.76316,6.76316,0,0,0,5.25244-2.17285,8.39536,8.39536,0,0,0,1.97852-5.876V659.383a8.2044,8.2044,0,0,0-1.9502-5.72754,6.65034,6.65034,0,0,0-5.13867-2.165h-4.0708Z" transform="translate(-178.78482 -642.3712)"/><path class="cls-1" d="M435.71215,662.30881h-6.81836v-1.4375h6.81836v1.4375Z" transform="translate(-178.78482 -642.3712)"/><path class="cls-1" d="M446.41625,670.73557h-1.708V652.05979l-5.63672,2.09277v-1.59473l7.06006-2.61914h0.28467v20.79688Z" transform="translate(-178.78482 -642.3712)"/><path class="cls-1" d="M465.27661,661.14182a6.41468,6.41468,0,0,1-2.26318,2.07031,6.049,6.049,0,0,1-2.93213.7334,5.44586,5.44586,0,0,1-3.11719-.91113,5.96415,5.96415,0,0,1-2.09277-2.51953,8.30448,8.30448,0,0,1-.74023-3.51562,8.66047,8.66047,0,0,1,.79-3.72949,6.20962,6.20962,0,0,1,2.20654-2.6123,6.37178,6.37178,0,0,1,8.12061,1.25293,9.75005,9.75005,0,0,1,1.73682,6.19922v1.53711q0,5.60889-2.3916,8.42676-2.39136,2.81836-7.30225,2.81836h-0.313l0.01416-1.48047h0.59766a7.57737,7.57737,0,0,0,5.65137-2.10645Q465.17651,665.25559,465.27661,661.14182Zm-4.98193,1.32324a4.997,4.997,0,0,0,3.06738-1.01465,5.48645,5.48645,0,0,0,1.92871-2.63477v-0.97949a7.95943,7.95943,0,0,0-1.31641-4.89062,4.2222,4.2222,0,0,0-3.55176-1.73926,4.05719,4.05719,0,0,0-3.31641,1.625,6.36678,6.36678,0,0,0-1.29541,4.09668,6.19639,6.19639,0,0,0,1.24561,3.9541A3.92877,3.92877,0,0,0,460.29467,662.46506Z" transform="translate(-178.78482 -642.3712)"/><path class="cls-2" d="M188.19351,651.78644a10.79249,10.79249,0,0,1,5.1118-2.68569" transform="translate(-178.78482 -642.3712)"/><path class="cls-2" d="M185.20737,656.64478a10.77382,10.77382,0,0,1,1.50969-3.15177" transform="translate(-178.78482 -642.3712)"/><path class="cls-2" d="M185.08964,662.2707a10.843,10.843,0,0,1-.3129-2.5938q0-.26169.01231-0.52038" transform="translate(-178.78482 -642.3712)"/><path class="cls-2" d="M188.1661,667.54159a10.84465,10.84465,0,0,1-2.47067-3.49485" transform="translate(-178.78482 -642.3712)"/><path class="cls-2" d="M193.34823,670.26223a10.7531,10.7531,0,0,1-3.36516-1.33416" transform="translate(-178.78482 -642.3712)"/><path class="cls-2" d="M199.12285,669.908a10.80514,10.80514,0,0,1-3.52709.58793" transform="translate(-178.78482 -642.3712)"/><path class="cls-2" d="M203.81157,666.71663a10.87958,10.87958,0,0,1-2.17613,1.938" transform="translate(-178.78482 -642.3712)"/><path class="cls-2" d="M206.195,661.8573a10.74806,10.74806,0,0,1-1.26918,3.30032" transform="translate(-178.78482 -642.3712)"/><path class="cls-2" d="M206.21155,657.57849a10.86957,10.86957,0,0,1,.20336,2.0984" transform="translate(-178.78482 -642.3712)"/><path class="cls-2" d="M203.1736,651.95492a10.87578,10.87578,0,0,1,1.35039,1.60955" transform="translate(-178.78482 -642.3712)"/><path class="cls-2" d="M197.466,649.01889a10.75794,10.75794,0,0,1,4.15,1.66728" transform="translate(-178.78482 -642.3712)"/><circle class="cls-2" cx="16.81101" cy="1.93121" r="1.28121"/><line class="cls-2" x1="16.81101" y1="3.21241" x2="16.81101" y2="7.839"/><circle class="cls-2" cx="5.84957" cy="5.98836" r="1.28121"/><line class="cls-2" x1="6.75545" y1="6.89432" x2="10.02694" y2="10.16581"/><circle class="cls-2" cx="4.46366" cy="13.59489" r="1.28121"/><line class="cls-2" x1="5.64116" y1="14.0999" x2="8.12727" y2="15.17035"/><circle class="cls-2" cx="26.77631" cy="12.1793" r="1.28121"/><line class="cls-2" x1="25.70081" y1="12.87556" x2="23.57293" y2="14.24503"/><circle class="cls-2" cx="23.7454" cy="27.92527" r="1.28121"/><line class="cls-2" x1="22.97361" y1="26.90265" x2="21.79348" y2="25.34883"/><circle class="cls-2" cx="27.77245" cy="5.98836" r="1.28121"/><line class="cls-2" x1="26.86649" y1="6.89432" x2="23.595" y2="10.16581"/><circle class="cls-2" cx="16.81101" cy="32.89372" r="1.28121"/><line class="cls-2" x1="16.81101" y1="31.61251" x2="16.81101" y2="26.98593"/><circle class="cls-2" cx="1.93121" cy="20.72175" r="1.28121"/><line class="cls-2" x1="3.19533" y1="20.51341" x2="7.76034" y2="19.76099"/><circle class="cls-2" cx="32.29226" cy="17.41246" r="1.28121"/><line class="cls-2" x1="31.01105" y1="17.41246" x2="26.38447" y2="17.41246"/><circle class="cls-2" cx="29.32812" cy="25.16014" r="1.28121"/><line class="cls-2" x1="28.27012" y1="24.43754" x2="24.44963" y2="21.82814"/><circle class="cls-2" cx="5.84957" cy="28.83656" r="1.28121"/><line class="cls-2" x1="6.75545" y1="27.9306" x2="10.02694" y2="24.65911"/><circle class="cls-2" cx="13.8927" cy="11.46908" r="1.28121"/><circle class="cls-2" cx="19.69372" cy="11.64703" r="0.88973"/><circle class="cls-2" cx="11.2947" cy="16.55832" r="0.88973"/><circle class="cls-2" cx="12.14884" cy="22.11022" r="0.88973"/><circle class="cls-2" cx="23.39499" cy="19.54781" r="0.88973"/><circle class="cls-2" cx="18.09221" cy="22.78641" r="1.28121"/><circle class="cls-2" cx="18.02104" cy="16.80745" r="1.6371"/></svg>