<svg id="Layer_1" data-name="Layer 1" xmlns="http://www.w3.org/2000/svg" viewBox="0 0 288.10028 34.62492"><defs><style>.cls-1{fill:#fff;}.cls-2{fill:none;stroke:#fff;stroke-linecap:round;stroke-linejoin:round;stroke-width:1.1px;}</style></defs><title>logo</title><path class="cls-1" d="M243.53711,633.09961H239.9502V623.9043h-9.2666v9.19531H227.082V612.374h3.60156V621h9.2666v-8.626h3.58691v20.72559Z" transform="translate(-179.5423 -604.83524)"/><path class="cls-1" d="M251.59375,633.09961h-3.58691V612.374h3.58691v20.72559Z" transform="translate(-179.5423 -604.83524)"/><path class="cls-1" d="M266.853,627.76172a2.50149,2.50149,0,0,0-.96094-2.10645,11.53583,11.53583,0,0,0-3.46582-1.49512,16.71744,16.71744,0,0,1-3.98584-1.67969,5.31983,5.31983,0,0,1-2.83252-4.64062,5.05028,5.05028,0,0,1,2.04248-4.12793,8.272,8.272,0,0,1,5.30225-1.62207,8.961,8.961,0,0,1,3.85791.79688,6.33167,6.33167,0,0,1,2.66162,2.27051,5.82376,5.82376,0,0,1,.96777,3.2666H266.853a3.24895,3.24895,0,0,0-1.01758-2.541,4.20008,4.20008,0,0,0-2.91113-.918,4.38741,4.38741,0,0,0-2.74023.75488,2.51188,2.51188,0,0,0-.97461,2.10645,2.27214,2.27214,0,0,0,1.05322,1.90039,12.13664,12.13664,0,0,0,3.47314,1.48047,15.93877,15.93877,0,0,1,3.88574,1.63672,6.18544,6.18544,0,0,1,2.14941,2.10645,5.48476,5.48476,0,0,1,.68359,2.7832,4.93113,4.93113,0,0,1-1.98584,4.12012,8.61034,8.61034,0,0,1-5.3877,1.53027,10.13162,10.13162,0,0,1-4.13525-.832,6.94781,6.94781,0,0,1-2.93213-2.29883,5.7281,5.7281,0,0,1-1.04639-3.417h3.60156a3.35246,3.35246,0,0,0,1.167,2.7334,5.10964,5.10964,0,0,0,3.34521.96777,4.43928,4.43928,0,0,0,2.8252-.76172A2.45451,2.45451,0,0,0,266.853,627.76172Z" transform="translate(-179.5423 -604.83524)"/><path class="cls-1" d="M274.25488,634.87891h-2.71875l8.15625-22.50488h2.71875Z" transform="translate(-179.5423 -604.83524)"/><path class="cls-1" d="M301.59912,633.09961h-3.58691V623.9043h-9.2666v9.19531H285.144V612.374h3.60156V621h9.2666v-8.626h3.58691v20.72559Z" transform="translate(-179.5423 -604.83524)"/><path class="cls-1" d="M317.96875,623.84668h-8.51221v6.377h9.94971v2.876H305.855V612.374h13.45166v2.9043h-9.8501V621h8.51221v2.84668Z" transform="translate(-179.5423 -604.83524)"/><path class="cls-1" d="M329.9541,625.12793h-4.01416v7.97168h-3.60156V612.374h7.28809a8.47645,8.47645,0,0,1,5.53711,1.61035,5.694,5.694,0,0,1,1.9502,4.6582,5.83542,5.83542,0,0,1-1.00342,3.4834,6.38282,6.38282,0,0,1-2.79687,2.1582l4.6543,8.62988v0.18555h-3.85742Zm-4.01416-2.90332h3.70068a4.11991,4.11991,0,0,0,2.84717-.918,3.20378,3.20378,0,0,0,1.0249-2.5127,3.40873,3.40873,0,0,0-.94678-2.57617,4.01921,4.01921,0,0,0-2.82568-.93945h-3.80029v6.94629Z" transform="translate(-179.5423 -604.83524)"/><path class="cls-1" d="M362.97754,626.63672a7.42823,7.42823,0,0,1-2.3418,5.01074,7.74311,7.74311,0,0,1-5.28809,1.73633,7.3115,7.3115,0,0,1-4.07812-1.15234,7.52347,7.52347,0,0,1-2.74023-3.26758,11.63579,11.63579,0,0,1-.98193-4.832v-2.69043a11.74173,11.74173,0,0,1,.96777-4.89648,7.44546,7.44546,0,0,1,2.78271-3.29492,7.58794,7.58794,0,0,1,4.17822-1.16016,7.42142,7.42142,0,0,1,5.25928,1.793,7.517,7.517,0,0,1,2.24219,4.96777H361.2124q-0.65479-5.28076-5.73633-5.28027a5.43445,5.43445,0,0,0-4.49121,2.1084,9.14085,9.14085,0,0,0-1.67236,5.82617V624.04a9.20565,9.20565,0,0,0,1.62988,5.72656,5.24885,5.24885,0,0,0,4.40527,2.13672,5.827,5.827,0,0,0,4.14209-1.31641,6.31215,6.31215,0,0,0,1.72266-3.9502h1.76514Z" transform="translate(-179.5423 -604.83524)"/><path class="cls-1" d="M382.54932,623.86133a11.9711,11.9711,0,0,1-.98926,5.02441,7.55147,7.55147,0,0,1-2.8252,3.33105,7.73486,7.73486,0,0,1-4.24219,1.167,7.36,7.36,0,0,1-5.86426-2.59766,10.38325,10.38325,0,0,1-2.23486-7.01074v-2.13477A11.90546,11.90546,0,0,1,367.397,616.623a7.455,7.455,0,0,1,7.06738-4.5332,7.74771,7.74771,0,0,1,4.2207,1.15234,7.574,7.574,0,0,1,2.8252,3.25977,11.73343,11.73343,0,0,1,1.03906,4.88281v2.47656Zm-1.75049-2.249A9.16056,9.16056,0,0,0,379.105,615.748a6.09166,6.09166,0,0,0-9.24561.00684,9.23229,9.23229,0,0,0-1.71484,5.94238v2.16406a9.158,9.158,0,0,0,1.708,5.84277,6.0964,6.0964,0,0,0,9.28076.0293,9.4047,9.4047,0,0,0,1.66553-5.92871V621.6123Z" transform="translate(-179.5423 -604.83524)"/><path class="cls-1" d="M392.89795,630.53711l0.11377,0.44141,0.12793-.44141,6.51953-18.16309h1.92139l-7.71484,20.72559H392.186L384.47119,612.374h1.90723Z" transform="translate(-179.5423 -604.83524)"/><path class="cls-1" d="M406.76221,633.09961h-1.751V612.374h1.751v20.72559Z" transform="translate(-179.5423 -604.83524)"/><path class="cls-1" d="M412.38477,633.09961V612.374h5.79346a9.01422,9.01422,0,0,1,4.56934,1.16016,8.02364,8.02364,0,0,1,3.15283,3.32422,10.46746,10.46746,0,0,1,1.13135,4.9248v1.90723a10.46773,10.46773,0,0,1-1.12451,4.9248,7.99836,7.99836,0,0,1-3.167,3.31738,9.2939,9.2939,0,0,1-4.69043,1.167h-5.665Zm1.751-19.24512v17.76465h3.92871a6.76316,6.76316,0,0,0,5.25244-2.17285,8.39536,8.39536,0,0,0,1.97852-5.876v-1.82324a8.2044,8.2044,0,0,0-1.9502-5.72754,6.65034,6.65034,0,0,0-5.13867-2.165h-4.0708Z" transform="translate(-179.5423 -604.83524)"/><path class="cls-1" d="M436.36963,624.67285h-6.81836v-1.4375h6.81836v1.4375Z" transform="translate(-179.5423 -604.83524)"/><path class="cls-1" d="M447.07373,633.09961h-1.708V614.42383L439.729,616.5166v-1.59473l7.06006-2.61914h0.28467v20.79688Z" transform="translate(-179.5423 -604.83524)"/><path class="cls-1" d="M465.93408,623.50586a6.41468,6.41468,0,0,1-2.26318,2.07031,6.049,6.049,0,0,1-2.93213.7334,5.44586,5.44586,0,0,1-3.11719-.91113,5.96415,5.96415,0,0,1-2.09277-2.51953,8.30447,8.30447,0,0,1-.74023-3.51562,8.66047,8.66047,0,0,1,.79-3.72949,6.20962,6.20962,0,0,1,2.20654-2.6123,6.37178,6.37178,0,0,1,8.12061,1.25293,9.75,9.75,0,0,1,1.73682,6.19922v1.53711q0,5.60889-2.3916,8.42676-2.39136,2.81836-7.30225,2.81836h-0.313l0.01416-1.48047h0.59766a7.57737,7.57737,0,0,0,5.65137-2.10645Q465.834,627.61963,465.93408,623.50586Zm-4.98193,1.32324a4.997,4.997,0,0,0,3.06738-1.01465,5.48645,5.48645,0,0,0,1.92871-2.63477V620.2002a7.95943,7.95943,0,0,0-1.31641-4.89062,4.2222,4.2222,0,0,0-3.55176-1.73926,4.05719,4.05719,0,0,0-3.31641,1.625,6.36678,6.36678,0,0,0-1.29541,4.09668,6.19639,6.19639,0,0,0,1.24561,3.9541A3.92877,3.92877,0,0,0,460.95215,624.8291Z" transform="translate(-179.5423 -604.83524)"/><path class="cls-2" d="M188.851,614.15048a10.79249,10.79249,0,0,1,5.1118-2.68569" transform="translate(-179.5423 -604.83524)"/><path class="cls-2" d="M185.86485,619.00882a10.77382,10.77382,0,0,1,1.50969-3.15177" transform="translate(-179.5423 -604.83524)"/><path class="cls-2" d="M185.74712,624.63474a10.843,10.843,0,0,1-.3129-2.5938q0-.26169.01231-0.52038" transform="translate(-179.5423 -604.83524)"/><path class="cls-2" d="M188.82358,629.90563a10.84466,10.84466,0,0,1-2.47067-3.49485" transform="translate(-179.5423 -604.83524)"/><path class="cls-2" d="M194.00571,632.62627a10.7531,10.7531,0,0,1-3.36516-1.33416" transform="translate(-179.5423 -604.83524)"/><path class="cls-2" d="M199.78032,632.27209a10.80515,10.80515,0,0,1-3.52709.58793" transform="translate(-179.5423 -604.83524)"/><path class="cls-2" d="M204.469,629.08067a10.87959,10.87959,0,0,1-2.17613,1.938" transform="translate(-179.5423 -604.83524)"/><path class="cls-2" d="M206.85252,624.22134a10.74806,10.74806,0,0,1-1.26918,3.30032" transform="translate(-179.5423 -604.83524)"/><path class="cls-2" d="M206.869,619.94253a10.86957,10.86957,0,0,1,.20336,2.0984" transform="translate(-179.5423 -604.83524)"/><path class="cls-2" d="M203.83107,614.319a10.87578,10.87578,0,0,1,1.35039,1.60955" transform="translate(-179.5423 -604.83524)"/><path class="cls-2" d="M198.12351,611.38293a10.75794,10.75794,0,0,1,4.15,1.66728" transform="translate(-179.5423 -604.83524)"/><circle class="cls-2" cx="16.71101" cy="1.83121" r="1.28121"/><line class="cls-2" x1="16.71101" y1="3.11241" x2="16.71101" y2="7.739"/><circle class="cls-2" cx="5.74957" cy="5.88836" r="1.28121"/><line class="cls-2" x1="6.65545" y1="6.79432" x2="9.92694" y2="10.06581"/><circle class="cls-2" cx="4.36366" cy="13.49489" r="1.28121"/><line class="cls-2" x1="5.54116" y1="13.9999" x2="8.02727" y2="15.07035"/><circle class="cls-2" cx="26.67631" cy="12.0793" r="1.28121"/><line class="cls-2" x1="25.60081" y1="12.77556" x2="23.47293" y2="14.14503"/><circle class="cls-2" cx="23.6454" cy="27.82527" r="1.28121"/><line class="cls-2" x1="22.87361" y1="26.80265" x2="21.69348" y2="25.24883"/><circle class="cls-2" cx="27.67245" cy="5.88836" r="1.28121"/><line class="cls-2" x1="26.76649" y1="6.79432" x2="23.495" y2="10.06581"/><circle class="cls-2" cx="16.71101" cy="32.79372" r="1.28121"/><line class="cls-2" x1="16.71101" y1="31.51251" x2="16.71101" y2="26.88593"/><circle class="cls-2" cx="1.83121" cy="20.62175" r="1.28121"/><line class="cls-2" x1="3.09533" y1="20.41341" x2="7.66034" y2="19.66099"/><circle class="cls-2" cx="32.19226" cy="17.31246" r="1.28121"/><line class="cls-2" x1="30.91105" y1="17.31246" x2="26.28447" y2="17.31246"/><circle class="cls-2" cx="29.22812" cy="25.06014" r="1.28121"/><line class="cls-2" x1="28.17013" y1="24.33754" x2="24.34963" y2="21.72814"/><circle class="cls-2" cx="5.74957" cy="28.73656" r="1.28121"/><line class="cls-2" x1="6.65545" y1="27.8306" x2="9.92694" y2="24.55911"/><circle class="cls-2" cx="13.7927" cy="11.36908" r="1.28121"/><circle class="cls-2" cx="19.59372" cy="11.54703" r="0.88973"/><circle class="cls-2" cx="11.1947" cy="16.45832" r="0.88973"/><circle class="cls-2" cx="12.04884" cy="22.01022" r="0.88973"/><circle class="cls-2" cx="23.29499" cy="19.44781" r="0.88973"/><circle class="cls-2" cx="17.99221" cy="22.68641" r="1.28121"/><circle class="cls-2" cx="17.92104" cy="16.70745" r="1.6371"/></svg>